<svg width="40" height="48" viewBox="0 0 40 48" fill="none" xmlns="http://www.w3.org/2000/svg">
<path d="M0 42.6158L3.49922 35.9455C7.55095 38.7248 13.8127 40.7629 19.8903 40.7629C27.8096 40.7629 30.9405 38.3542 30.9405 34.2779C30.9405 23.7166 1.28918 32.7956 1.28918 14.0817C1.28918 5.55858 8.84014 0 20.8112 0C26.8888 0 33.8872 1.66757 37.9389 4.26158L34.2555 10.9319C30.0196 8.15259 25.4154 7.22616 20.8112 7.22616C13.4444 7.22616 9.76099 10.0055 9.76099 13.7112C9.76099 24.8283 39.4123 15.7493 39.4123 34.0926C39.4123 42.6158 31.6772 47.9891 19.1536 47.9891C11.6027 48.1744 3.86756 45.7657 0 42.6158Z" fill="#FF6060"/>
</svg>
