<svg width="41" height="49" viewBox="0 0 41 49" fill="none" xmlns="http://www.w3.org/2000/svg">
<path d="M40.8856 19.2698V47.8038H32.7822V41.5041C30.0196 45.7657 24.6787 48.1744 17.3119 48.1744C6.63011 48.1744 0 42.4305 0 34.2779C0 26.6812 4.7884 20.5668 18.7853 20.5668H32.2297V18.8992C32.2297 11.673 27.9938 7.59673 19.7061 7.59673C14.1811 7.59673 8.4718 9.63488 4.78841 12.5995L1.28918 6.11444C6.07759 2.22343 13.076 0 20.627 0C33.703 0.185286 40.8856 6.48501 40.8856 19.2698ZM32.4138 33.3515V26.6812H19.3378C10.866 26.6812 8.4718 30.0163 8.4718 33.9074C8.4718 38.5395 12.3394 41.5041 18.7853 41.5041C25.2312 41.6894 30.388 38.9101 32.4138 33.3515Z" fill="#FF6060"/>
</svg>
